<svg width="15" height="20" viewBox="0 0 15 20" fill="none" xmlns="http://www.w3.org/2000/svg">
<g id="Camada_1" clip-path="url(#clip0_434_416)">
<path id="Vector" d="M7.50468 19.9996C7.42509 19.9996 7.34489 19.9935 7.2653 19.9812C6.76161 19.903 6.32232 19.5853 6.06045 19.11C5.80344 18.6433 5.54522 18.1692 5.2955 17.7105C5.18917 17.5153 5.08285 17.3202 4.97652 17.125C4.63931 16.5075 4.30271 15.8899 3.9661 15.2724C3.12399 13.727 2.25271 12.1293 1.39176 10.5611C0.796934 9.47692 0.48828 8.26956 0.499824 7.06958C0.519267 5.07229 1.24472 3.35576 2.65615 1.968C3.58272 1.05739 4.70007 0.449095 5.97843 0.159721C6.09508 0.133247 6.21964 0.109851 6.35878 0.0876859C6.62186 0.0452034 7.12251 0.0162661 7.46762 -0.000357455C7.66873 -0.00959277 7.83643 0.152949 7.83643 0.356741V2.20134C7.83643 2.39282 7.68818 2.54982 7.49982 2.55844C7.24889 2.57014 6.92079 2.58984 6.75189 2.61632C6.66561 2.62986 6.59331 2.64341 6.52951 2.65818C5.70198 2.84535 5.01115 3.2203 4.41693 3.80521C3.49522 4.7115 3.04075 5.78772 3.02799 7.0936C3.0207 7.85028 3.21877 8.61865 3.60094 9.315C4.46311 10.8862 5.33499 12.4858 6.17832 14.0324C6.51493 14.6499 6.85153 15.2668 7.18813 15.8838C7.18935 15.8856 7.18995 15.8875 7.19117 15.8893C7.32545 16.1356 7.67481 16.1356 7.80909 15.8893C8.99449 13.719 10.2091 11.4945 11.403 9.30145C11.7493 8.66545 11.9358 8.02328 11.9698 7.34787C11.9796 7.15947 12.1284 7.00986 12.3143 7.00555L14.1389 6.96245C14.3406 6.95753 14.5065 7.12438 14.5004 7.32879C14.467 8.44318 14.1705 9.52064 13.6164 10.5384C12.2742 13.003 10.9072 15.507 9.58445 17.9285L8.98173 19.0324C8.9155 19.1531 8.80553 19.3556 8.60441 19.5477C8.30001 19.8396 7.90934 19.9972 7.50529 19.9972L7.50468 19.9996Z" fill="white"/>
<path id="Vector_2" d="M13.884 6.52873H8.78637C8.51904 6.52873 8.30273 6.30954 8.30273 6.03864V0.639057C8.30273 0.196993 8.83437 -0.019113 9.13574 0.300429L14.2334 5.70001C14.5275 6.01155 14.3099 6.52873 13.884 6.52873Z" fill="white"/>
</g>
<defs>
<clipPath id="clip0_434_416">
<rect width="14" height="20" fill="white" transform="translate(0.5)"/>
</clipPath>
</defs>
</svg>
